# xmcd
#
# Track frame offsets: 
#        150
#        16160
#        32284
#        45335
#        58730
#        73080
#        87090
#        101262
#        117511
#        136898
#
# Disc length: 2008 seconds
#
# Revision: 1
# Processed by: cddbd v1.5.2PL0 Copyright (c) Steve Scherf et al.
# Submitted via: ExactAudioCopy v1.0b1
#
DISCID=7507d60a
DTITLE=Jes Holtsø - s Holtsø
DYEAR=2010
DGENRE=Blues
TTITLE0=What's this Road
TTITLE1=She's My Shelter
TTITLE2=You Aint Up To It
TTITLE3=Rocking My World
TTITLE4=Strong
TTITLE5=Right By My Side
TTITLE6=Anticipation
TTITLE7=Crawfish Music
TTITLE8=Smokin' Good Time
TTITLE9=Party
EXTD=
EXTT0=
EXTT1=
EXTT2=
EXTT3=
EXTT4=
EXTT5=
EXTT6=
EXTT7=
EXTT8=
EXTT9=
PLAYORDER=
